<svg id="svg" version="1.1" xmlns="http://www.w3.org/2000/svg" xmlns:xlink="http://www.w3.org/1999/xlink" width="400" height="400" viewBox="0, 0, 400,400"><g id="svgg"><path id="path0" d="M170.703 103.769 C 169.300 104.158,168.156 106.892,168.299 109.512 C 168.511 113.412,175.194 114.686,177.419 111.250 C 180.172 107.000,175.962 102.310,170.703 103.769 M182.896 105.149 C 180.064 108.834,182.234 113.281,186.863 113.281 C 189.102 113.281,191.247 111.600,191.632 109.543 C 192.596 104.405,186.013 101.094,182.896 105.149 M197.808 103.898 C 195.721 104.742,194.893 107.180,195.560 110.517 C 196.243 113.930,203.503 114.167,204.672 110.814 C 206.376 105.926,202.487 102.008,197.808 103.898 M170.851 117.749 C 167.158 119.356,167.523 125.860,171.366 126.927 C 173.465 127.510,174.240 127.447,175.662 126.580 C 181.274 123.158,176.894 115.119,170.851 117.749 M184.570 117.720 C 182.676 118.581,181.915 119.727,181.742 121.979 C 181.261 128.234,190.413 129.284,191.647 123.115 C 192.417 119.261,188.219 116.060,184.570 117.720 M197.650 117.913 C 194.224 119.738,194.470 125.281,198.040 126.709 C 202.878 128.645,206.571 124.642,204.506 119.700 C 203.530 117.364,200.274 116.515,197.650 117.913 M170.228 131.929 C 168.788 132.822,168.222 134.375,168.455 136.798 C 169.070 143.200,178.125 142.277,178.125 135.812 C 178.125 132.023,173.635 129.816,170.228 131.929 M183.024 132.678 C 180.968 134.675,181.099 137.666,183.333 139.713 C 186.974 143.050,192.548 139.866,191.630 134.974 C 190.912 131.149,185.959 129.828,183.024 132.678 M197.150 131.873 C 194.475 133.324,194.618 138.478,197.381 140.185 C 201.894 142.974,206.464 138.857,204.645 133.640 C 203.871 131.420,199.770 130.453,197.150 131.873 M132.422 159.718 C 120.763 163.547,119.667 180.238,130.793 184.523 C 144.073 189.639,155.033 173.876,145.518 163.344 C 142.759 160.290,136.205 158.475,132.422 159.718 M123.295 192.047 C 122.970 194.417,122.972 265.618,123.297 270.196 L 123.546 273.715 131.597 273.773 C 136.025 273.804,141.802 273.721,144.434 273.587 L 149.219 273.344 149.219 231.789 L 149.219 190.234 136.381 190.234 L 123.544 190.234 123.295 192.047 " stroke="none" fill="#a4cc3b" fill-rule="evenodd"></path><path id="path1" d="M130.224 117.640 C 128.924 118.081,127.344 120.597,127.344 122.226 C 127.344 126.686,133.177 128.947,136.193 125.657 C 139.959 121.547,135.675 115.794,130.224 117.640 M143.913 117.566 C 140.897 118.786,140.047 122.968,142.288 125.561 C 145.225 128.958,151.172 126.725,151.172 122.226 C 151.172 118.751,147.234 116.223,143.913 117.566 M157.154 117.759 C 154.232 119.030,153.753 124.567,156.414 126.310 C 160.045 128.690,164.448 126.517,164.452 122.344 C 164.455 118.279,160.980 116.095,157.154 117.759 M130.552 131.300 C 127.529 132.172,126.627 137.252,129.063 139.688 C 132.169 142.794,137.500 140.472,137.500 136.013 C 137.500 132.303,134.389 130.193,130.552 131.300 M144.154 131.370 C 139.058 133.123,140.565 141.016,145.995 141.016 C 148.257 141.016,149.562 140.188,150.536 138.135 C 152.528 133.937,148.648 129.825,144.154 131.370 M157.126 131.631 C 153.908 133.092,153.665 138.365,156.729 140.233 C 160.232 142.369,164.453 140.132,164.453 136.140 C 164.453 131.937,161.057 129.847,157.126 131.631 M130.860 144.970 C 126.222 146.819,126.496 153.407,131.264 154.691 C 136.993 156.234,140.079 148.085,134.779 145.410 C 132.873 144.448,132.323 144.387,130.860 144.970 M144.704 144.863 C 140.139 146.306,139.696 152.240,143.998 154.322 C 148.882 156.686,153.608 150.108,149.702 146.382 C 148.037 144.794,146.450 144.312,144.704 144.863 M158.300 144.804 C 156.288 145.199,154.688 147.369,154.688 149.700 C 154.688 156.338,163.823 156.812,164.371 150.203 C 164.678 146.500,161.961 144.084,158.300 144.804 M171.122 145.215 C 165.169 148.251,169.120 157.238,175.129 154.329 C 179.431 152.246,179.354 146.905,174.997 145.162 C 173.025 144.373,172.767 144.376,171.122 145.215 M184.942 145.065 C 181.591 146.568,180.586 150.334,182.848 152.911 C 185.849 156.328,190.808 154.951,191.650 150.467 C 192.309 146.953,188.168 143.619,184.942 145.065 M158.300 158.475 C 157.816 158.571,156.784 159.248,156.008 159.980 C 152.296 163.481,155.885 169.751,160.814 168.379 C 167.164 166.611,164.775 157.203,158.300 158.475 M171.726 158.617 C 167.938 159.719,166.943 164.816,170.012 167.399 C 171.652 168.779,175.181 168.669,176.757 167.188 C 180.509 163.664,176.698 157.171,171.726 158.617 M184.942 158.737 C 182.061 160.029,180.824 163.304,182.207 165.977 C 183.989 169.423,189.531 169.305,191.201 165.786 C 193.141 161.698,188.925 156.951,184.942 158.737 M156.939 172.877 C 155.549 173.631,154.688 175.340,154.688 177.344 C 154.688 183.554,163.689 184.260,164.324 178.099 C 164.794 173.530,160.861 170.749,156.939 172.877 M170.703 172.760 C 169.368 173.419,167.827 176.591,168.143 178.028 C 169.314 183.359,176.179 183.850,178.115 178.741 C 179.609 174.799,174.660 170.805,170.703 172.760 M183.146 173.841 C 179.649 177.517,182.705 183.189,187.681 182.255 C 193.468 181.169,192.875 172.841,186.975 172.352 C 184.760 172.168,184.724 172.183,183.146 173.841 M10.938 231.835 L 10.938 273.460 54.785 273.351 L 98.633 273.241 102.140 272.143 C 112.151 269.010,116.406 262.696,116.406 250.977 C 116.406 240.133,112.216 233.637,103.906 231.598 L 102.148 231.166 104.297 230.071 C 110.907 226.701,114.096 220.425,113.522 211.914 C 112.752 200.490,108.024 194.495,97.445 191.526 L 93.555 190.435 52.246 190.323 L 10.938 190.211 10.938 231.835 M155.078 200.586 L 155.078 210.938 172.461 210.938 L 189.844 210.938 189.844 242.188 L 189.844 273.438 202.734 273.438 L 215.625 273.438 215.625 242.188 L 215.625 210.938 232.813 210.938 L 250.000 210.938 250.000 200.586 L 250.000 190.234 202.539 190.234 L 155.078 190.234 155.078 200.586 M255.469 231.836 L 255.469 273.438 267.966 273.438 L 280.464 273.438 280.564 244.551 L 280.664 215.664 287.620 227.852 C 291.446 234.555,296.000 242.500,297.739 245.508 C 299.478 248.516,301.621 252.238,302.501 253.780 C 303.381 255.322,306.287 260.376,308.957 265.011 L 313.813 273.438 322.469 273.438 L 331.125 273.438 331.574 272.452 C 331.912 271.710,357.716 226.929,363.531 216.992 L 364.446 215.430 364.449 244.434 L 364.453 273.438 376.953 273.438 L 389.453 273.438 389.453 231.836 L 389.453 190.234 370.693 190.234 L 351.934 190.234 351.543 191.262 C 351.328 191.827,350.830 192.750,350.437 193.313 C 350.043 193.875,349.279 195.127,348.739 196.094 C 348.199 197.061,346.438 200.137,344.826 202.930 C 343.214 205.723,340.178 210.996,338.080 214.648 C 334.710 220.514,331.756 225.620,327.571 232.813 C 323.657 239.540,322.471 241.377,322.212 241.114 C 321.913 240.810,319.430 236.486,310.943 221.484 C 308.208 216.650,303.508 208.389,300.500 203.125 C 297.491 197.861,294.650 192.808,294.187 191.895 L 293.343 190.234 274.406 190.234 L 255.469 190.234 255.469 231.836 M83.900 210.152 C 85.177 210.731,85.753 211.307,86.333 212.584 C 87.978 216.210,86.844 220.543,83.900 221.880 C 82.305 222.604,81.165 222.639,59.473 222.648 L 36.719 222.656 36.719 216.016 L 36.719 209.375 59.473 209.384 C 81.165 209.392,82.305 209.428,83.900 210.152 M86.690 240.825 C 90.673 243.165,90.845 250.481,86.983 253.297 C 85.902 254.086,85.408 254.104,61.300 254.210 L 36.719 254.319 36.719 247.068 L 36.719 239.816 61.035 239.927 C 84.594 240.036,85.393 240.064,86.690 240.825 " stroke="none" fill="#0454a4" fill-rule="evenodd"></path><path id="path2" d="M33.203 284.257 C 29.633 284.948,29.662 288.933,33.251 290.880 C 36.357 292.565,35.910 293.928,32.555 293.001 C 30.834 292.526,30.994 292.425,30.663 294.197 L 30.397 295.620 32.370 295.891 C 38.754 296.769,41.188 291.314,35.584 288.689 C 32.936 287.449,32.918 286.596,35.543 286.779 C 37.279 286.899,39.103 285.362,38.185 284.551 C 37.922 284.319,34.063 284.091,33.203 284.257 M46.773 284.351 C 44.936 284.717,44.901 284.755,44.645 286.663 C 44.308 289.181,44.699 290.044,46.412 290.557 C 48.354 291.139,49.642 292.453,48.813 293.007 C 48.249 293.383,46.498 293.273,45.263 292.783 C 44.777 292.591,44.586 292.811,44.453 293.717 C 44.216 295.330,44.549 295.727,46.338 295.967 C 52.027 296.730,54.518 291.355,49.624 288.875 C 47.099 287.595,47.011 286.719,49.407 286.719 C 51.000 286.719,52.346 285.361,51.512 284.597 C 51.131 284.248,48.081 284.090,46.773 284.351 M140.018 284.402 C 134.914 285.885,135.528 294.931,140.799 295.920 C 144.701 296.652,147.015 294.617,147.186 290.302 C 147.391 285.152,144.793 283.014,140.018 284.402 M181.256 284.373 C 176.609 285.504,176.216 293.674,180.717 295.555 C 183.521 296.727,186.328 296.136,186.328 294.374 C 186.328 293.137,186.327 293.136,184.223 293.136 C 181.420 293.136,180.859 292.616,180.859 290.013 C 180.859 287.475,181.677 286.719,184.420 286.719 C 186.056 286.719,187.488 285.332,186.640 284.568 C 186.268 284.233,182.406 284.093,181.256 284.373 M213.712 284.359 C 210.368 284.892,208.645 290.534,210.871 293.658 C 214.134 298.235,221.094 295.854,221.094 290.161 C 221.094 285.606,218.530 283.590,213.712 284.359 M232.849 284.483 C 230.251 285.416,229.062 288.804,230.047 292.464 C 231.220 296.819,237.829 297.326,239.820 293.213 C 242.479 287.721,238.322 282.516,232.849 284.483 M269.261 284.262 C 267.820 284.446,266.943 286.280,267.369 288.220 C 267.540 288.999,267.421 289.488,266.969 289.863 C 264.102 292.243,266.605 296.562,270.474 295.911 C 271.352 295.763,273.200 295.669,274.580 295.701 L 277.089 295.760 276.097 294.459 C 275.209 293.295,275.162 293.071,275.650 292.336 C 277.110 290.137,277.026 289.063,275.394 289.063 C 274.032 289.063,273.865 289.176,273.626 290.267 C 273.363 291.463,273.357 291.466,272.772 290.629 C 272.233 289.861,272.254 289.712,273.005 288.912 C 275.415 286.346,273.320 283.744,269.261 284.262 M10.156 290.008 L 10.156 295.641 11.369 295.907 C 14.809 296.663,19.141 294.838,19.141 292.634 C 19.141 291.309,18.413 289.844,17.755 289.844 C 17.230 289.844,17.260 289.680,17.940 288.815 C 20.034 286.153,18.314 284.375,13.644 284.375 L 10.156 284.375 10.156 290.008 M22.491 284.843 C 22.405 285.123,21.634 287.690,20.777 290.548 L 19.219 295.744 20.817 295.626 C 22.255 295.520,22.448 295.381,22.742 294.238 C 23.040 293.084,23.205 292.969,24.564 292.969 C 25.916 292.969,26.093 293.090,26.421 294.238 C 26.745 295.374,26.951 295.520,28.381 295.626 L 29.980 295.743 28.326 290.157 L 26.672 284.570 24.660 284.452 C 23.263 284.370,22.600 284.490,22.491 284.843 M39.844 290.039 L 39.844 295.703 41.211 295.703 L 42.578 295.703 42.578 290.039 L 42.578 284.375 41.211 284.375 L 39.844 284.375 39.844 290.039 M56.641 290.039 L 56.641 295.703 58.203 295.703 L 59.766 295.703 59.766 290.039 L 59.766 284.375 58.203 284.375 L 56.641 284.375 56.641 290.039 M61.719 290.039 L 61.719 295.703 63.086 295.703 L 64.453 295.703 64.460 292.480 L 64.468 289.258 66.241 292.480 C 67.997 295.672,68.030 295.703,69.554 295.703 L 71.094 295.703 71.094 290.039 L 71.094 284.375 69.744 284.375 L 68.394 284.375 68.279 287.166 L 68.164 289.957 66.602 287.175 C 65.050 284.412,65.028 284.393,63.379 284.384 L 61.719 284.375 61.719 290.039 M73.506 285.279 C 71.807 287.087,72.652 289.828,75.208 290.804 C 78.444 292.040,77.667 293.958,74.319 292.998 C 72.954 292.606,72.887 292.651,72.517 294.201 C 72.301 295.104,72.427 295.292,73.498 295.666 C 79.367 297.712,83.221 291.747,77.892 288.864 C 75.148 287.380,75.072 286.551,77.705 286.804 C 79.677 286.994,80.053 286.686,80.073 284.863 C 80.084 283.876,74.491 284.230,73.506 285.279 M80.859 285.547 C 80.859 286.654,80.946 286.719,82.422 286.719 L 83.984 286.719 83.984 291.211 L 83.984 295.703 85.352 295.703 L 86.719 295.703 86.719 291.211 L 86.719 286.719 88.281 286.719 C 89.757 286.719,89.844 286.654,89.844 285.547 L 89.844 284.375 85.352 284.375 L 80.859 284.375 80.859 285.547 M91.016 290.039 L 91.016 295.703 92.383 295.703 L 93.750 295.703 93.750 290.039 L 93.750 284.375 92.383 284.375 L 91.016 284.375 91.016 290.039 M94.531 285.523 C 94.531 286.568,94.663 286.683,95.996 286.793 L 97.461 286.914 97.571 291.309 L 97.682 295.703 99.036 295.703 L 100.391 295.703 100.391 291.211 L 100.391 286.719 101.953 286.719 C 103.429 286.719,103.516 286.654,103.516 285.547 L 103.516 284.375 99.023 284.375 L 94.531 284.375 94.531 285.523 M104.688 288.489 C 104.688 294.557,105.654 296.094,109.471 296.094 C 112.740 296.094,114.063 293.855,114.063 288.320 L 114.063 284.375 112.695 284.375 L 111.328 284.375 111.324 287.012 C 111.317 291.151,110.972 292.579,109.858 293.087 C 108.125 293.876,107.422 292.422,107.422 288.043 L 107.422 284.375 106.055 284.375 L 104.688 284.375 104.688 288.489 M114.844 285.547 C 114.844 286.654,114.931 286.719,116.406 286.719 L 117.969 286.719 117.969 291.211 L 117.969 295.703 119.336 295.703 L 120.703 295.703 120.703 291.211 L 120.703 286.719 122.266 286.719 C 123.741 286.719,123.828 286.654,123.828 285.547 L 123.828 284.375 119.336 284.375 L 114.844 284.375 114.844 285.547 M125.000 290.039 L 125.000 295.703 128.516 295.703 L 132.031 295.703 132.031 294.336 L 132.031 292.969 129.883 292.969 C 127.852 292.969,127.734 292.915,127.734 291.992 C 127.734 291.069,127.852 291.016,129.883 291.016 C 132.010 291.016,132.031 291.004,132.031 289.844 C 132.031 288.684,132.010 288.672,129.883 288.672 C 127.852 288.672,127.734 288.619,127.734 287.695 C 127.734 286.772,127.852 286.719,129.883 286.719 C 132.010 286.719,132.031 286.707,132.031 285.547 L 132.031 284.375 128.516 284.375 L 125.000 284.375 125.000 290.039 M148.828 290.039 L 148.828 295.703 150.195 295.703 C 151.534 295.703,151.563 295.670,151.563 294.115 C 151.563 291.714,152.094 291.016,153.920 291.016 C 155.380 291.016,155.469 290.949,155.469 289.844 C 155.469 288.698,155.425 288.672,153.516 288.672 C 151.693 288.672,151.563 288.607,151.563 287.695 C 151.563 286.772,151.680 286.719,153.711 286.719 C 155.838 286.719,155.859 286.707,155.859 285.547 L 155.859 284.375 152.344 284.375 L 148.828 284.375 148.828 290.039 M159.375 285.547 C 159.375 286.626,159.484 286.719,160.742 286.719 L 162.109 286.719 162.109 291.211 L 162.109 295.703 163.672 295.703 L 165.234 295.703 165.234 291.211 L 165.234 286.719 166.797 286.719 C 168.273 286.719,168.359 286.654,168.359 285.547 L 168.359 284.375 163.867 284.375 L 159.375 284.375 159.375 285.547 M169.141 290.039 L 169.141 295.703 172.852 295.703 L 176.563 295.703 176.563 294.336 L 176.563 292.969 174.414 292.969 C 172.383 292.969,172.266 292.915,172.266 291.992 C 172.266 291.081,172.396 291.016,174.219 291.016 C 176.128 291.016,176.172 290.990,176.172 289.844 C 176.172 288.698,176.128 288.672,174.219 288.672 C 172.396 288.672,172.266 288.607,172.266 287.695 C 172.266 286.772,172.383 286.719,174.414 286.719 C 176.541 286.719,176.563 286.707,176.563 285.547 L 176.563 284.375 172.852 284.375 L 169.141 284.375 169.141 290.039 M187.891 290.039 L 187.891 295.703 189.258 295.703 L 190.625 295.703 190.625 293.338 L 190.625 290.973 192.480 291.092 L 194.336 291.211 194.453 293.457 L 194.570 295.703 195.918 295.703 L 197.266 295.703 197.266 290.039 L 197.266 284.375 195.898 284.375 L 194.531 284.375 194.531 286.328 L 194.531 288.281 192.578 288.281 L 190.625 288.281 190.625 286.328 L 190.625 284.375 189.258 284.375 L 187.891 284.375 187.891 290.039 M198.828 290.039 L 198.828 295.703 200.448 295.703 L 202.068 295.703 201.810 291.895 C 201.586 288.597,201.620 288.217,202.069 289.063 C 202.355 289.600,203.258 291.313,204.077 292.871 C 205.534 295.644,205.597 295.703,207.080 295.703 L 208.594 295.703 208.594 290.039 L 208.594 284.375 207.186 284.375 L 205.779 284.375 205.917 287.661 L 206.055 290.948 204.354 287.661 L 202.652 284.375 200.740 284.375 L 198.828 284.375 198.828 290.039 M222.266 290.039 L 222.266 295.703 225.977 295.703 L 229.688 295.703 229.688 294.336 L 229.688 292.969 227.539 292.969 L 225.391 292.969 225.391 288.672 L 225.391 284.375 223.828 284.375 L 222.266 284.375 222.266 290.039 M243.641 285.209 C 238.197 289.270,242.405 297.029,249.408 295.840 L 251.367 295.508 251.481 292.285 L 251.594 289.063 249.430 289.063 C 247.286 289.063,247.266 289.073,247.266 290.234 C 247.266 291.146,247.439 291.406,248.047 291.406 C 248.856 291.406,249.046 292.020,248.503 292.876 C 247.462 294.516,244.816 292.474,244.764 289.989 C 244.712 287.494,245.861 286.570,248.726 286.808 C 250.488 286.954,250.781 286.881,250.781 286.295 C 250.781 285.918,250.888 285.333,251.018 284.993 C 251.419 283.949,245.082 284.135,243.641 285.209 M252.350 284.668 C 252.354 284.829,253.145 286.429,254.108 288.223 C 255.564 290.934,255.859 291.841,255.859 293.594 L 255.859 295.703 257.227 295.703 L 258.594 295.703 258.601 293.457 C 258.608 291.204,259.105 289.972,261.699 285.774 L 262.564 284.375 260.800 284.375 C 259.051 284.375,259.028 284.393,258.101 286.426 L 257.167 288.477 256.482 286.426 L 255.797 284.375 254.070 284.375 C 253.121 284.375,252.347 284.507,252.350 284.668 M281.213 286.426 C 281.193 287.554,281.061 290.103,280.920 292.090 L 280.664 295.703 282.129 295.703 L 283.594 295.703 283.627 292.090 C 283.664 288.193,283.889 288.385,284.891 293.164 C 285.541 296.266,287.966 297.018,288.418 294.259 C 288.552 293.442,289.007 291.895,289.429 290.820 L 290.198 288.867 290.216 290.473 C 290.265 294.750,290.609 295.703,292.104 295.703 L 293.476 295.703 293.223 292.127 C 293.083 290.161,292.969 287.612,292.969 286.463 L 292.969 284.375 290.862 284.375 L 288.756 284.375 288.074 287.207 C 287.700 288.765,287.303 290.196,287.194 290.387 C 286.950 290.815,285.561 286.471,285.553 285.254 C 285.547 284.450,285.364 284.375,283.398 284.375 L 281.250 284.375 281.213 286.426 M296.861 286.015 C 296.615 286.939,295.834 289.497,295.123 291.699 L 293.832 295.703 295.505 295.703 C 297.108 295.703,297.189 295.646,297.435 294.336 C 297.813 292.321,300.463 292.249,301.030 294.238 C 301.334 295.303,304.793 296.623,304.673 295.628 C 304.665 295.562,303.910 293.047,302.995 290.039 L 301.332 284.570 299.319 284.453 L 297.306 284.336 296.861 286.015 M305.469 290.039 L 305.469 295.703 307.031 295.703 L 308.594 295.703 308.601 292.480 L 308.608 289.258 310.382 292.480 C 312.138 295.672,312.170 295.703,313.695 295.703 L 315.234 295.703 315.234 290.039 L 315.234 284.375 313.867 284.375 L 312.500 284.375 312.491 287.402 L 312.483 290.430 310.851 287.402 L 309.220 284.375 307.344 284.375 L 305.469 284.375 305.469 290.039 M318.187 288.770 C 315.999 295.780,316.003 295.703,317.876 295.703 C 319.364 295.703,319.458 295.632,319.705 294.314 C 320.080 292.314,322.610 292.403,323.133 294.434 C 323.435 295.606,323.582 295.703,325.060 295.703 C 326.978 295.703,326.982 295.789,324.748 288.819 L 323.323 284.375 321.441 284.375 L 319.558 284.375 318.187 288.770 M329.204 285.146 C 324.434 288.898,327.148 295.910,333.349 295.855 C 337.114 295.822,337.109 295.827,337.109 292.164 L 337.109 289.063 334.766 289.063 L 332.422 289.063 332.422 290.234 C 332.422 291.224,332.574 291.406,333.398 291.406 C 334.180 291.406,334.375 291.602,334.375 292.383 C 334.375 293.939,330.967 293.267,330.321 291.584 C 329.238 288.761,331.030 286.539,334.180 286.800 C 336.334 286.979,336.693 286.704,336.713 284.863 C 336.723 283.976,330.388 284.214,329.204 285.146 M338.672 290.039 L 338.672 295.703 342.383 295.703 L 346.094 295.703 346.094 294.336 L 346.094 292.969 343.945 292.969 C 341.914 292.969,341.797 292.915,341.797 291.992 C 341.797 291.081,341.927 291.016,343.750 291.016 C 345.660 291.016,345.703 290.990,345.703 289.844 C 345.703 288.698,345.660 288.672,343.750 288.672 C 341.927 288.672,341.797 288.607,341.797 287.695 C 341.797 286.772,341.914 286.719,343.945 286.719 C 346.072 286.719,346.094 286.707,346.094 285.547 L 346.094 284.375 342.383 284.375 L 338.672 284.375 338.672 290.039 M347.904 285.840 C 347.788 286.646,347.580 289.194,347.442 291.504 L 347.190 295.703 348.595 295.703 L 350.000 295.703 350.027 293.262 C 350.073 289.199,350.537 288.943,351.356 292.529 L 352.081 295.703 353.377 295.703 C 354.473 295.703,354.709 295.537,354.910 294.629 C 355.040 294.038,355.557 292.324,356.058 290.820 L 356.970 288.086 357.000 291.895 L 357.031 295.703 358.625 295.703 C 360.152 295.703,360.210 295.659,360.014 294.629 C 359.902 294.038,359.695 291.481,359.553 288.946 L 359.296 284.337 357.302 284.454 L 355.309 284.570 354.539 287.695 C 353.673 291.212,353.370 291.040,352.303 286.426 L 351.829 284.375 349.972 284.375 C 348.125 284.375,348.114 284.382,347.904 285.840 M361.328 290.039 L 361.328 295.703 365.259 295.703 L 369.190 295.703 369.068 294.434 C 368.947 293.178,368.920 293.163,366.699 293.047 C 363.453 292.878,363.185 291.016,366.406 291.016 C 368.316 291.016,368.359 290.990,368.359 289.844 C 368.359 288.698,368.316 288.672,366.406 288.672 C 364.583 288.672,364.453 288.607,364.453 287.695 C 364.453 286.772,364.570 286.719,366.602 286.719 C 368.728 286.719,368.750 286.707,368.750 285.547 L 368.750 284.375 365.039 284.375 L 361.328 284.375 361.328 290.039 M370.313 290.039 L 370.313 295.703 371.600 295.703 L 372.888 295.703 372.757 291.895 L 372.627 288.086 374.632 291.895 L 376.637 295.703 378.358 295.703 L 380.078 295.703 380.078 290.039 L 380.078 284.375 378.727 284.375 L 377.375 284.375 377.262 287.547 L 377.148 290.718 375.461 287.547 L 373.773 284.375 372.043 284.375 L 370.313 284.375 370.313 290.039 M380.469 285.547 C 380.469 286.654,380.556 286.719,382.031 286.719 L 383.594 286.719 383.594 291.211 L 383.594 295.703 385.156 295.703 L 386.719 295.703 386.719 291.211 L 386.719 286.719 388.086 286.719 C 389.345 286.719,389.453 286.626,389.453 285.547 L 389.453 284.375 384.961 284.375 L 380.469 284.375 380.469 285.547 M270.891 287.524 C 270.638 288.320,270.572 288.341,270.233 287.735 C 270.026 287.365,269.965 286.780,270.097 286.434 C 270.477 285.445,271.225 286.472,270.891 287.524 M15.062 286.914 C 15.813 287.494,15.813 287.506,15.062 288.086 C 13.877 289.001,13.281 288.805,13.281 287.500 C 13.281 286.195,13.877 285.999,15.062 286.914 M143.196 287.233 C 145.104 288.874,144.261 293.359,142.044 293.359 C 139.723 293.359,138.683 289.647,140.424 287.579 C 141.679 286.086,141.839 286.066,143.196 287.233 M217.815 288.505 C 218.413 290.886,217.596 292.711,215.707 293.214 C 213.067 293.917,212.110 288.199,214.636 286.817 C 215.689 286.241,217.487 287.196,217.815 288.505 M236.520 287.105 C 238.294 289.066,237.409 293.359,235.231 293.359 C 232.487 293.359,231.871 287.780,234.498 286.721 C 235.704 286.236,235.739 286.242,236.520 287.105 M322.248 290.137 C 322.258 290.405,321.851 290.625,321.343 290.625 C 320.454 290.625,320.436 290.567,320.849 289.021 L 321.277 287.417 321.754 288.533 C 322.016 289.146,322.238 289.868,322.248 290.137 M25.083 289.448 C 25.224 290.412,25.118 290.625,24.496 290.625 C 23.900 290.625,23.787 290.437,23.973 289.746 C 24.102 289.263,24.210 288.637,24.213 288.356 C 24.223 287.403,24.909 288.264,25.083 289.448 M299.739 289.355 C 299.945 290.441,299.869 290.625,299.209 290.625 C 298.332 290.625,298.271 290.332,298.839 288.838 C 299.310 287.598,299.416 287.659,299.739 289.355 M15.276 291.361 C 16.369 292.247,15.776 293.359,14.210 293.359 C 13.409 293.359,13.281 293.171,13.281 291.992 C 13.281 290.420,13.880 290.231,15.276 291.361 M270.313 292.188 L 271.147 293.359 270.132 293.359 C 269.061 293.359,268.514 292.584,268.891 291.602 C 269.204 290.787,269.361 290.852,270.313 292.188 " stroke="none" fill="#040404" fill-rule="evenodd"></path><path id="path3" d="" stroke="none" fill="#a8b054" fill-rule="evenodd"></path><path id="path4" d="" stroke="none" fill="#584854" fill-rule="evenodd"></path></g></svg>