<?xml version="1.0" standalone="no"?>
<!DOCTYPE svg PUBLIC "-//W3C//DTD SVG 20010904//EN"
 "http://www.w3.org/TR/2001/REC-SVG-20010904/DTD/svg10.dtd">
<svg version="1.0" xmlns="http://www.w3.org/2000/svg"
 width="330.000000pt" height="153.000000pt" viewBox="0 0 330.000000 153.000000"
 preserveAspectRatio="xMidYMid meet">

<g transform="translate(0.000000,153.000000) scale(0.100000,-0.100000)"
fill="#000000" stroke="none">
<path d="M384 1024 c-44 -22 -67 -67 -67 -134 0 -61 27 -121 61 -135 75 -31
149 -26 192 15 40 38 39 67 -2 78 -26 7 -36 6 -45 -7 -27 -35 -35 -41 -57 -41
-67 0 -84 143 -20 172 21 10 29 8 55 -11 24 -18 38 -21 65 -16 19 3 34 11 34
16 0 6 -15 26 -34 45 -31 31 -39 34 -92 34 -33 0 -73 -7 -90 -16z"/>
<path d="M729 1013 c-34 -89 -99 -263 -99 -268 0 -3 20 -5 45 -5 39 0 45 3 51
25 6 24 10 26 63 23 49 -3 56 -6 59 -25 3 -20 9 -23 54 -23 44 0 49 2 43 18
-4 9 -26 69 -50 132 -24 63 -46 123 -50 133 -5 13 -19 17 -56 17 -45 0 -51 -3
-60 -27z m70 -85 c4 -13 11 -35 15 -50 6 -26 4 -28 -24 -28 -33 0 -35 6 -19
63 12 43 16 45 28 15z"/>
<path d="M990 891 l0 -151 93 0 c101 1 127 10 158 56 23 35 26 131 5 172 -29
57 -50 66 -157 70 l-99 4 0 -151z m162 62 c21 -19 25 -100 6 -125 -7 -9 -28
-19 -45 -23 l-33 -7 0 86 0 86 27 0 c14 0 35 -7 45 -17z"/>
<path d="M1320 891 l0 -151 86 0 c146 0 190 39 182 163 -3 60 -8 71 -36 99
-31 31 -35 32 -132 36 l-100 4 0 -151z m164 57 c19 -27 21 -98 4 -120 -7 -9
-28 -19 -45 -23 l-33 -7 0 86 0 86 29 0 c20 0 35 -8 45 -22z"/>
<path d="M1812 1024 c-81 -41 -93 -188 -22 -254 53 -49 160 -48 211 2 39 39
38 62 -5 75 -31 10 -36 8 -55 -18 -55 -74 -136 11 -98 103 20 47 50 57 89 28
23 -17 38 -20 64 -15 41 7 42 15 5 57 -25 29 -35 32 -92 35 -46 3 -73 -1 -97
-13z"/>
<path d="M2144 1025 c-93 -48 -95 -223 -2 -271 45 -23 135 -23 176 1 49 29 65
70 60 148 -3 60 -8 71 -36 99 -28 29 -39 33 -99 35 -47 3 -77 -1 -99 -12z
m120 -66 c51 -40 27 -159 -32 -159 -52 0 -86 72 -62 130 21 52 53 62 94 29z"/>
<path d="M2440 891 l0 -151 45 0 45 0 0 61 c0 52 2 60 17 57 9 -2 32 -29 51
-61 34 -57 34 -57 83 -57 27 0 49 2 49 4 0 10 -44 82 -63 103 l-20 22 32 26
c37 32 42 79 12 116 -18 22 -28 24 -135 27 l-116 4 0 -151z m170 74 c19 -22
-5 -45 -46 -45 -31 0 -34 3 -34 30 0 27 3 30 34 30 18 0 39 -7 46 -15z"/>
<path d="M2770 890 l0 -150 125 0 125 0 0 30 0 30 -80 0 -80 0 0 35 0 35 70 0
c70 0 70 0 70 28 l0 27 -70 -3 -70 -4 0 31 0 31 80 0 80 0 0 30 0 30 -125 0
-125 0 0 -150z"/>
<path d="M312 593 c3 -84 6 -98 21 -101 13 -3 17 3 17 26 0 16 8 37 19 46 18
16 20 15 45 -29 21 -34 33 -45 52 -45 28 0 28 0 -18 67 -15 23 -28 46 -28 52
0 6 14 26 31 44 31 32 31 32 8 35 -17 3 -34 -7 -62 -37 -21 -23 -40 -41 -42
-41 -3 0 -5 18 -5 40 0 34 -3 40 -20 40 -20 0 -21 -5 -18 -97z"/>
<path d="M1060 590 c0 -93 1 -100 20 -100 19 0 20 7 20 100 0 93 -1 100 -20
100 -19 0 -20 -7 -20 -100z"/>
<path d="M1380 659 c0 -26 -3 -29 -20 -24 -49 15 -88 -34 -75 -94 8 -39 28
-49 88 -49 l47 1 0 99 c0 91 -1 98 -20 98 -16 0 -20 -7 -20 -31z m-2 -92 c2
-27 -1 -39 -13 -43 -35 -14 -61 46 -33 74 23 23 43 9 46 -31z"/>
<path d="M2287 683 c-4 -3 -7 -16 -7 -29 0 -18 -5 -22 -31 -20 -23 1 -36 -6
-52 -26 -18 -24 -19 -31 -8 -68 13 -44 49 -62 83 -41 11 7 18 7 18 1 0 -5 7
-10 15 -10 12 0 15 18 15 100 0 77 -3 100 -13 100 -8 0 -17 -3 -20 -7z m-12
-118 c0 -30 -4 -41 -17 -43 -26 -5 -44 39 -28 67 19 36 45 22 45 -24z"/>
<path d="M2670 670 c0 -15 5 -20 18 -18 9 2 17 10 17 18 0 8 -8 16 -17 18 -13
2 -18 -3 -18 -18z"/>
<path d="M1873 673 c-7 -2 -13 -11 -13 -18 0 -7 -6 -15 -12 -18 -10 -3 -10 -9
-1 -28 7 -13 14 -44 15 -69 3 -41 6 -45 31 -48 19 -2 27 1 27 12 0 9 -4 16
-10 16 -5 0 -10 20 -10 45 0 25 5 45 10 45 6 0 10 7 10 15 0 8 -4 15 -10 15
-5 0 -10 9 -10 20 0 20 -5 23 -27 13z"/>
<path d="M510 565 c0 -68 2 -75 20 -75 17 0 20 7 20 49 0 49 18 79 40 66 5 -3
10 -31 10 -61 0 -47 2 -54 20 -54 18 0 20 7 20 65 0 61 -2 66 -26 77 -19 9
-30 9 -44 0 -12 -7 -21 -8 -25 -2 -3 6 -13 10 -21 10 -11 0 -14 -16 -14 -75z"/>
<path d="M695 615 c-31 -30 -33 -77 -5 -105 43 -43 130 -6 130 55 0 33 -42 75
-75 75 -14 0 -37 -11 -50 -25z m70 -21 c19 -20 16 -53 -7 -67 -34 -22 -66 41
-36 71 16 16 23 15 43 -4z"/>
<path d="M831 628 c0 -7 10 -40 22 -73 28 -75 51 -84 68 -24 l13 42 14 -42
c20 -59 41 -51 69 24 26 72 28 85 8 85 -14 0 -21 -11 -41 -65 -6 -17 -9 -14
-19 20 -8 28 -17 40 -30 40 -13 0 -22 -12 -30 -40 -12 -41 -13 -40 -34 18 -10
27 -42 38 -40 15z"/>
<path d="M1150 620 c-26 -26 -27 -90 -2 -113 25 -23 75 -21 96 2 16 17 16 19
-3 24 -11 2 -24 0 -29 -5 -12 -12 -42 -4 -42 12 0 5 20 10 45 10 40 0 45 2 45
23 0 29 -39 67 -68 67 -12 0 -31 -9 -42 -20z m65 -30 c0 -8 -10 -16 -22 -18
-22 -3 -32 16 -16 32 12 11 38 2 38 -14z"/>
<path d="M1470 620 c-12 -12 -20 -33 -20 -55 0 -22 8 -43 20 -55 23 -23 33
-24 61 -10 16 9 19 7 19 -9 0 -23 -28 -35 -46 -20 -7 6 -22 9 -34 7 -19 -3
-20 -5 -7 -23 21 -27 93 -27 113 0 19 26 20 185 1 185 -7 0 -18 -5 -24 -11 -8
-8 -13 -8 -17 0 -11 17 -44 13 -66 -9z m68 -22 c30 -30 -1 -94 -33 -68 -25 20
-13 80 15 80 3 0 11 -5 18 -12z"/>
<path d="M1642 624 c-17 -12 -22 -25 -22 -58 0 -51 22 -76 67 -76 37 0 65 27
43 40 -9 5 -19 5 -27 -2 -14 -12 -43 -4 -43 12 0 5 20 10 45 10 37 0 45 3 45
19 0 28 -39 71 -64 71 -12 0 -32 -7 -44 -16z m63 -34 c0 -8 -10 -16 -22 -18
-22 -3 -32 16 -16 32 12 11 38 2 38 -14z"/>
<path d="M1966 619 c-52 -41 -23 -129 43 -129 45 0 75 30 75 75 0 67 -64 96
-118 54z m68 -25 c20 -19 20 -35 2 -60 -12 -15 -18 -17 -33 -8 -22 14 -29 50
-13 70 16 18 25 18 44 -2z"/>
<path d="M2370 618 c-26 -28 -26 -82 0 -108 25 -25 72 -26 94 -1 16 17 16 19
0 25 -10 4 -21 2 -24 -5 -9 -14 -42 -8 -48 9 -2 8 10 12 42 12 42 0 46 2 46
25 0 57 -71 85 -110 43z m68 -31 c2 -11 -3 -17 -17 -17 -23 0 -35 15 -26 31
10 15 39 6 43 -14z"/>
<path d="M2520 620 c-27 -27 -13 -54 35 -70 19 -6 35 -16 35 -21 0 -13 -34
-11 -47 2 -7 7 -19 9 -29 5 -16 -6 -16 -8 1 -26 36 -40 120 -17 113 31 -2 18
-13 28 -45 39 -24 8 -43 18 -43 22 0 11 38 10 44 -1 3 -5 15 -7 26 -4 20 5 20
7 4 24 -22 25 -69 24 -94 -1z"/>
<path d="M2670 565 c0 -67 2 -76 18 -73 14 3 17 15 17 73 0 58 -3 70 -17 73
-16 3 -18 -6 -18 -73z"/>
<path d="M2755 620 c-28 -31 -25 -88 5 -112 15 -12 32 -17 47 -13 17 4 23 1
23 -10 0 -20 -28 -31 -43 -16 -15 15 -50 14 -45 -1 7 -21 51 -39 78 -32 45 10
50 21 50 115 0 72 -3 89 -15 89 -8 0 -15 -5 -15 -10 0 -7 -6 -7 -19 0 -29 15
-46 12 -66 -10z m74 -32 c12 -33 -4 -67 -32 -68 -17 0 -29 47 -18 69 15 27 39
27 50 -1z"/>
<path d="M2910 565 c0 -68 2 -75 20 -75 17 0 20 7 20 49 0 49 18 79 40 66 5
-3 10 -31 10 -61 0 -47 2 -54 20 -54 18 0 20 7 20 65 0 61 -2 66 -26 77 -19 9
-30 9 -44 0 -12 -7 -21 -8 -25 -2 -3 6 -13 10 -21 10 -11 0 -14 -16 -14 -75z"/>
</g>
</svg>
