<svg xmlns="http://www.w3.org/2000/svg" width="600" height="600" fill="none" viewBox="0 0 600 600"><path fill="#fff" d="M307.03 292.97h-14.06v14.06h14.06z"/><path fill="#fff" d="M600 0H0v600h600z"/><path fill="#0056d2" d="M600 0H0v600h600z"/><path fill="#fff" d="M117.91 300.43c0-19.3 15.93-34.87 35.86-34.87 20.07 0 36 15.57 36 34.87 0 19.17-15.93 35.01-36 35.01-19.93 0-35.86-15.97-35.86-35m54.73 0c0-9.58-8.43-18.1-18.87-18.1-10.3 0-18.6 8.52-18.6 18.1 0 9.72 8.43 18.24 18.6 18.24 10.44 0 18.87-8.52 18.87-18.24m305.51.52c0-21.16 17.33-35.4 33.04-35.4 10.74 0 16.92 3.2 21.08 9.45l1.61-8.25H550v67.35h-16.12l-2.01-6.92c-4.7 5.06-10.61 8.25-20.55 8.25-15.71 0-33.17-13.58-33.17-34.48m54.8-.13c0-10.24-8.47-18.5-18.94-18.5a18.7 18.7 0 0 0-18.67 18.77c0 9.32 8.46 17.7 18.67 17.7 10.6-.13 18.93-8.52 18.93-17.97m-74.11-25.85v-7.72h-17.1v66.21h17.1v-35.72c0-10.73 5.22-16.36 14.49-16.36.65 0 1.18 0 1.7.13l3.13-15.96c-8.87.13-15.27 3.14-19.32 9.42m-174.67 0v-7.72h-17.63l.14 66.21h17.63l-.14-35.72c0-10.73 5.38-16.36 14.8-16.36.67 0 1.2 0 1.75.13l3.23-15.96c-9.15.13-15.74 3.14-19.78 9.42m-87.51 32.8v-41.24h17.21v39.1c0 8.65 4.73 13.7 13 13.7 9.2 0 14.6-5.71 14.6-16.62v-36.18h17.2v67.3h-17.2V326c-4.08 6.38-10.65 9.44-19.71 9.44-15.5.13-25.1-11.17-25.1-27.66m169.3-7.41c0-18.87 13.62-34.94 34.98-34.81 19.9 0 33.91 15.94 33.91 34.54 0 1.86-.13 3.86-.4 5.58l-51.4-.13c2 8.1 8.68 13.82 18.69 13.95 6.14 0 12.69-2.26 16.69-7.3l11.89 9.56c-6.15 8.63-16.96 13.68-28.45 13.68-20.3-.26-35.91-15.41-35.91-35.07m51.4-6.91c-.93-6.78-8.14-12.1-16.42-12.1-8.14 0-14.69 4.8-17.23 11.97zm-113.41 26.1 15.52-8.07c2.54 5.55 7.76 8.73 14.98 8.73 6.7 0 9.24-2.12 9.24-5.03 0-10.72-36.93-4.23-36.93-28.85 0-13.63 12.04-20.78 26.9-20.78 11.23 0 21.26 4.9 26.75 14.16l-15.39 8.08c-2.27-4.5-6.55-7.02-12.04-7.02-5.35 0-7.9 1.85-7.9 4.9 0 10.45 36.94 3.83 36.94 28.85 0 12.97-10.7 20.91-27.97 20.91-14.72-.13-25.02-4.9-30.1-15.88M50 300.07c0-19.16 15.79-34.51 35.56-34.51a36.1 36.1 0 0 1 30.12 15.75l-14.86 8.53a18.8 18.8 0 0 0-15.26-7.87c-10.22 0-18.44 8.4-18.44 17.97 0 9.58 8.36 17.98 18.44 17.98a18.4 18.4 0 0 0 15.66-8.53l14.73 8.66a35.8 35.8 0 0 1-30.39 16.4C65.79 334.6 50 318.85 50 300.08"/></svg>